<svg xmlns="http://www.w3.org/2000/svg" height="48" viewBox="0 -960 960 960" width="48"><path fill="#3D3D3D" d="M258.46-186.93q-45.19 0-76.82-31.63Q150-250.19 150-295.39q0-45.19 31.64-76.82 31.63-31.64 76.82-31.64t76.83 31.64q31.63 31.63 31.63 76.82 0 45.2-31.63 76.83-31.64 31.63-76.83 31.63Zm443.08 0q-45.19 0-76.83-31.63-31.63-31.63-31.63-76.83 0-45.19 31.63-76.82 31.64-31.64 76.83-31.64t76.82 31.64Q810-340.58 810-295.39q0 45.2-31.64 76.83-31.63 31.63-76.82 31.63ZM403.27-587.79q-31.73-31.63-31.73-76.82 0-45.2 31.73-76.83Q435-773.07 480-773.07t76.73 31.63q31.73 31.63 31.73 76.83 0 45.19-31.73 76.82Q525-556.15 480-556.15t-76.73-31.64Z"/></svg>